PathFileType	3	(X/Y/Z)	D:\Jess\Healthy\Labelled\HA21\20251027\SRRun01.trc
DataRate	CameraRate	NumFrames	NumMarkers	Units	OrigDataRate	OrigDataStartFrame	OrigNumFrames
250.0	250.0	4	33	mm	250.0	37000	4001
Frame#	Time	C7			T10			CLAV			LSHO			RSHO			LASIS			RASIS			LPSIS			RPSIS			LILCR			RILCR			LGTR			LTHI			LLTHI			LLEP			LPSH			LLSH			LDSH			LLMAL			LTOE			L5TH			LHEE			RGTR			RTHI			RLTHI			RLEP			RPSH			RLSH			RDSH			RLMAL			RTOE			R5TH			RHEE			
		X1	Y1	Z1	X2	Y2	Z2	X3	Y3	Z3	X4	Y4	Z4	X5	Y5	Z5	X6	Y6	Z6	X7	Y7	Z7	X8	Y8	Z8	X9	Y9	Z9	X10	Y10	Z10	X11	Y11	Z11	X12	Y12	Z12	X13	Y13	Z13	X14	Y14	Z14	X15	Y15	Z15	X16	Y16	Z16	X17	Y17	Z17	X18	Y18	Z18	X19	Y19	Z19	X20	Y20	Z20	X21	Y21	Z21	X22	Y22	Z22	X23	Y23	Z23	X24	Y24	Z24	X25	Y25	Z25	X26	Y26	Z26	X27	Y27	Z27	X28	Y28	Z28	X29	Y29	Z29	X30	Y30	Z30	X31	Y31	Z31	X32	Y32	Z32	X33	Y33	Z33	

1001	147.996	794.1325217534303	1536.78405933763	-866.2236332061618	788.9900842332291	1312.197820054863	-829.0680051945747	841.6425107753425	1475.867715290387	-1013.933925066067	664.2266905865395	1533.742274980598	-980.7116683990193	962.1870428074789	1526.824193437322	-925.1988013629048	685.6684279115743	1017.181490064092	-986.8147710070876	917.4790452770545	1045.24234918945	-1003.167501869069	787.7363300394944	1089.949962513836	-814.3697392811423	819.6175894348524	1092.523456009847	-813.3833693935338	640.5649147386183	1116.352991393058	-963.4047731363655	972.1136275542956	1135.351482760366	-905.4514818652457	627.5684287116258	905.9893717437259	-870.024485318128	702.612976121986	715.6396209474794	-933.9927412223831	659.5707001520707	684.320456991437	-793.3291132304396	686.8775830032951	548.9425372159335	-737.2782208121813	741.0007721253859	447.541865296188	-750.2335718458048	689.4474196501317	396.4722210181839	-627.779797401456	748.2140766207107	301.8344446680804	-639.6807898919797	722.3797792588579	214.9991583076879	-518.4669759610755	747.6759327896648	72.40424842732853	-595.3689856553838	705.3927546549446	80.95522933016817	-535.5887405773581	775.9515869357767	239.2949467808872	-439.2207795520338	1000.792196869844	939.7841371325982	-953.9693459048466	914.3272302740887	841.6423716680566	-1114.953558792576	966.3624435363394	695.3473923410086	-1051.138514458865	949.3894959860478	596.5353280069363	-1080.133966825084	902.3511168181993	483.479278420867	-1117.411248333457	960.7044591453384	422.7500133380677	-1018.169844480776	903.5665577995215	329.8490193987697	-1037.624812527595	928.2451799743992	227.1208619340581	-942.3373004418779	920.9454019449404	115.5472772428726	-1060.995065714274	957.599599843591	108.1528944400581	-1005.164063225285	871.0307290181679	230.2400024681083	-864.9927282291434	
1002	148	794.3476027098628	1538.484749581932	-866.4080328690767	788.7260324956673	1313.970443767004	-829.4133200837391	842.2912356926381	1477.65709346957	-1013.868726624885	665.0222046595794	1535.745035174998	-981.318709702919	962.4759346398434	1528.449906808082	-925.0091644092471	685.9878262326798	1018.585196144889	-987.7427035857469	917.4079876447053	1047.515271323445	-1003.969011009255	787.4136232577249	1092.565476840726	-815.4868359721395	819.2567298844423	1095.158673023252	-814.307533039126	641.0133195718747	1118.400848637555	-965.5761482029503	972.3457521634593	1138.280805670706	-906.3218907138262	627.6647302021802	908.2280716174522	-870.2530996683574	703.1261134140555	717.1201620162643	-932.705386520454	659.7404148965754	687.043444319033	-791.6281632138063	687.1307019891909	552.1804234733256	-734.3147937350658	741.2505705858882	450.6492584366612	-746.3553163194699	689.4230899698889	400.7008489949836	-623.3359422779886	747.9690622829135	305.7634276906427	-634.4714203177538	722.0217827650512	220.2635843132215	-512.6713675652638	747.1876411809901	75.20938737470956	-586.5156516835006	705.1774472255136	85.52628258434839	-526.7624552957777	775.4755232191214	246.6506152705267	-434.3227568252505	1000.797514960875	942.0890215764595	-954.1334490960285	914.7812905969508	842.9656828019081	-1114.77832378744	965.7371610817381	696.1860448796181	-1048.960589590582	949.3791799773243	596.28589865731	-1078.120080717111	902.4671919373322	484.0872861912653	-1119.138134682187	960.749193502874	419.3353274601429	-1022.621525839141	903.4477292155278	327.3830917790146	-1046.019275609554	927.8025665389072	220.5858794813609	-955.2996437481634	920.5809074700413	114.2524837702549	-1078.589008295872	957.0523353252718	104.4192790617612	-1023.072797322802	870.3496474520008	220.4100698200448	-878.1318439699407	
1003	148.004	794.5711256529642	1540.021942070913	-866.5941484890194	788.5109804307914	1315.613628214981	-829.7269617677571	842.9012556787177	1479.26214319471	-1013.834632004192	665.7729650591391	1537.562278904302	-981.8888924493824	962.772711795634	1529.90099577564	-924.870455307203	686.3249090439783	1019.906995650435	-988.6480885263577	917.3780694289728	1049.587420533784	-1004.707399260741	787.1127247292881	1095.063375416327	-816.5579602312315	818.9181807389641	1097.654750564427	-815.1851713429409	641.4852482383237	1120.309536141875	-967.6054057990716	972.5959053135093	1140.992283419319	-907.1590432848833	627.7161145374242	910.3450729961205	-870.5902705700461	703.6388107636531	718.5236354164588	-931.6736369649849	659.9263871587184	689.5460921641513	-790.2519085778883	687.4053521379618	555.1683751221965	-731.8031879291777	741.4885132065816	453.5048294184027	-742.8114557241523	689.4413349056611	404.8359343076126	-619.1652525905942	747.8122281171331	309.6399309756424	-629.3762733158756	721.7835868825579	225.6672052449662	-506.850779826665	746.7360744417625	78.33021381140202	-577.6994867688867	705.0273041391922	90.36724918929856	-517.9719401728022	775.1892561672551	254.038479632891	-429.4221472413718	1000.818393601815	944.0316825574325	-954.1494526863995	915.2524608197632	843.8119168800765	-1114.368687563816	965.1946849091714	696.6841858414474	-1046.501155567327	949.4297014014071	595.7118815411942	-1075.870837294218	902.5714367718479	484.5450915075031	-1120.606290490461	960.8164156824643	415.9164462642596	-1026.984012422457	903.33398309795	325.0786105519932	-1054.251042187596	927.3894691826428	214.4082195300938	-968.2672190812742	920.149782090363	113.4624926266756	-1095.968314225468	956.4564033845515	101.1934479626754	-1040.885539061935	869.7374083541304	210.9711639995869	-891.3615275354341	
1004	148.008	794.8039063717682	1541.393245305805	-866.7813974730178	788.3487439273867	1317.123744305273	-830.0072516481745	843.4755355172581	1480.681298645333	-1013.830788431222	666.4786041113491	1539.190997507204	-982.4224899562453	963.0795952697932	1531.177339419714	-924.7790772484014	686.676425240915	1021.145688597025	-989.5323307000623	917.3918714359247	1051.44708670416	-1005.372848273109	786.8345902365955	1097.428627593513	-817.5753226203839	818.604167950741	1099.997062777505	-816.0090468939762	641.9746621329117	1122.080915252244	-969.4747325678707	972.861829115731	1143.465720069917	-907.9459721007087	627.7272002774891	912.3293826405766	-871.0379530840047	704.1512003015766	719.8397372622668	-930.9086775135006	660.1264296899459	691.8140169732604	-789.2053340054593	687.699506257637	557.893394642771	-729.7401080052347	741.7038765900618	456.0929395179397	-739.5934558468884	689.5001754158841	408.8767528413482	-615.2558828463274	747.7349308797618	313.4603788437927	-624.3865415475133	721.663042767163	231.2070753386648	-500.9954728088666	746.3246657624939	81.76634293489634	-568.9054046203948	704.9448823425204	95.46744109224487	-509.2048689282559	775.0924816739088	261.4558116109767	-424.5055471847808	1000.856135667441	945.6060035279432	-954.0171719792748	915.7306674445059	844.1592691474743	-1113.714564456053	964.7538219530788	696.8465572135038	-1043.790461625679	949.5436121610884	594.8316445085291	-1073.411720030425	902.6621927912527	484.8637107804705	-1121.825827995413	960.9018565359114	412.5235138125038	-1031.24199082035	903.2265346747873	322.9510100839152	-1062.288950932415	927.0091321612456	208.6154792512857	-981.1779162191655	919.645986160438	113.1587047016821	-1113.052598051119	955.8048739706691	98.46729666074604	-1058.517436676719	869.2026094791787	201.9734338417533	-904.6091120240301	
